<?xml version="1.0" standalone="no"?><!DOCTYPE svg PUBLIC "-//W3C//DTD SVG 1.1//EN" "http://www.w3.org/Graphics/SVG/1.1/DTD/svg11.dtd"><svg t="1545620589583" class="icon" style="" viewBox="0 0 1024 1024" version="1.1" xmlns="http://www.w3.org/2000/svg" p-id="2407" xmlns:xlink="http://www.w3.org/1999/xlink" width="200" height="200"><defs><style type="text/css"></style></defs><path d="M511.92574 1023.975247C357.959389 1023.975247 71.50029 794.49855 71.50029 577.448076V163.162251c0-10.049894 8.416167-18.16902 18.837362-18.379424l24.95146-0.420808c0.953007 0 98.766196-1.967898 199.599304-41.895185 103.481725-40.843164 170.179849-87.936569 170.885322-88.419261l14.691162-10.421195a19.86463 19.86463 0 0 1 11.398956-3.601625 19.480951 19.480951 0 0 1 11.324696 3.539741l14.975826 10.507832c0.680719 0.482692 67.440727 47.526591 170.798685 88.419262 100.932121 39.927287 198.74531 41.895185 199.747825 41.895184l24.753432 0.420809c10.433572 0.210404 18.824985 8.32953 18.824986 18.379423l0.210404 414.285825c0 217.02572-286.508606 446.527171-440.6111 446.527171z m372.625797-812.568556c-37.860375-2.846645-117.516921-12.624251-200.267646-45.385419-84.557726-33.417134-146.725972-71.005221-172.358151-87.602398-25.557919 16.535293-87.763295 54.135757-172.296268 87.602398-82.602205 32.686908-162.03597 42.464514-200.416167 45.385419v366.041385c0 170.216979 249.576484 378.281957 372.712435 378.281957 47.724618 0 140.723264-38.726745 232.137691-123.767163 88.12222-81.909108 140.723264-177.07368 140.723264-254.490041z m-407.948946 435.660414a33.305744 33.305744 0 0 1-23.899439 10.049894 33.738929 33.738929 0 0 1-23.998453-10.037517l-101.674724-102.330691a34.345388 34.345388 0 0 1 0-48.269193 33.664668 33.664668 0 0 1 47.935022 0l77.738155 78.183717 196.269967-197.69329a33.590408 33.590408 0 0 1 47.910269 0 34.18449 34.18449 0 0 1 0 48.269194z m0 0" p-id="2408"></path></svg>