<?xml version="1.0" standalone="no"?><!DOCTYPE svg PUBLIC "-//W3C//DTD SVG 1.1//EN" "http://www.w3.org/Graphics/SVG/1.1/DTD/svg11.dtd"><svg t="1558236342548" class="icon" style="" viewBox="0 0 1024 1024" version="1.1" xmlns="http://www.w3.org/2000/svg" p-id="1141" xmlns:xlink="http://www.w3.org/1999/xlink" width="200" height="200"><defs><style type="text/css"></style></defs><path d="M514.70818 1006.180146c-60.347436-93.039-153.574724-132.704394-248.914116-162.359808C108.088252 794.751782 64.405357 669.954475 79.49196 520.213056c6.024204-59.820434 16.871249-119.359458 29.011754-178.308035 15.980973-77.590146-12.169157-145.388275-40.643676-213.95286-7.04751-16.972557-28.379351-36.44198-0.450255-52.881394 28.773324-16.947997 42.012859-65.074088 91.163279-42.139749 112.093984 52.324716 224.630037 53.824883 337.142553-1.031493 10.305717-5.02034 27.309996-5.03569 37.614689-0.008186 112.502283 54.856375 225.321792 53.937446 336.931752 0.62831 35.062564-16.754592 48.626487 8.752338 70.187549 22.75833 33.073256 21.467941 38.912242 45.008077 18.116613 80.513732-58.543348 99.968829-38.429241 204.539466-19.651572 311.302025 11.661597 66.275449 11.787464 136.675846 4.107551 203.742311-9.487072 82.780355-58.140165 143.69675-137.814786 175.730327-24.14798 9.711176-49.045019 17.584494-73.03541 27.64871C649.865439 888.748596 566.697251 922.231175 514.70818 1006.180146zM642.614292 454.526007c-7.836479-42.832528-7.836479-42.832528 29.756721-44.975331 71.066569-4.070712 95.012957-29.059849 95.697549-100.291171 0.25071-26.110681-0.983397-52.269457 0.210801-78.323856 1.160429-25.28078-9.815553-33.386388-34.287921-32.977066-65.951061 1.128707-131.936915 0.355087-197.910489 0.355087-110.875227-0.008186-110.875227 0-110.875227 111.62224 0 93.553723 0.052189 92.89369 95.583962 100.669794 10.517541 0.854461 19.974937 14.706957 29.919427 22.532179-10.556427 7.107885-20.812001 19.767206-31.728632 20.363793-43.38409 2.368954-86.977957 0.975211-132.154879 0.975211 0 21.307282 0 36.772508 0 53.309136 24.477484 1.490957 45.966914 2.802836 71.460542 4.359284-3.869121 51.045583-24.49488 90.645486-53.168943 128.576377-12.534478 16.585747-16.427134 39.697117-24.243147 59.844993 102.882182-27.085892 138.477888-101.983719 161.319106-189.630918 7.145747 15.818267 9.243525 29.865191 9.380648 43.928488 0.49528 50.850132 1.131777 101.724823 0.124843 152.551418-0.644683 32.443923 18.887163 33.307593 43.163055 33.476439 25.228591 0.168846 42.567491-2.910283 41.575908-34.910091-1.620917-52.173267-0.595564-104.442724-0.173962-156.663062 0.100284-12.554944 2.212388-25.087375 3.400446-37.625946 4.174066-1.539053 8.348132-3.079128 12.527314-4.618181 15.251356 92.103698 54.680367 164.67248 141.016711 199.350281 5.13802-2.844791 10.279111-5.697769 15.416108-8.544607-28.430516-59.868529-56.862056-119.736035-89.339748-188.122565 27.226085 0 39.386032-0.338714 51.52449 0.071631 19.046798 0.644683 35.861766 0.475837 36.048007-26.359344 0.200568-28.553313-17.467837-29.350468-38.3484-29.100782C726.239897 454.880071 683.959955 454.526007 642.614292 454.526007zM285.732162 402.442792c0 101.805664 0.608867 197.834764-0.366344 293.838282-0.294712 29.083385 4.318352 45.610804 40.144302 45.321208 34.383088-0.273223 45.556569-11.313673 45.057195-45.144176-1.523703-103.104239-2.494821-206.296483 0.430812-309.335231 1.220804-43.00956 11.995195-85.881996 19.99438-128.530328 4.669346-24.909319 12.443403-49.230238 18.797112-73.745584-64.429405-16.745383-67.801199-10.54824-88.766696 40.060391-19.458167 46.974871-51.314713 88.719624-76.268034 133.574205-9.091052 16.335037-14.011108 34.983769-20.836561 52.583612 3.927449 1.998517 7.856945 3.997034 11.785417 5.995551C249.766019 412.951123 263.828292 408.840502 285.732162 402.442792zM685.78758 253.750261c1.608637 12.361539 2.7486 17.735943 2.937912 23.144116 2.443655 68.475558-0.151449 71.086012-69.688175 71.118757-19.24839 0.016373-38.496779 0.023536-57.744145 0-52.894697-0.056282-73.315796-28.850072-54.841026-79.539544 2.393513-6.560416 13.519921-13.917988 20.754696-14.086833C579.119165 253.185396 631.069351 253.750261 685.78758 253.750261z" p-id="1142" fill="#ffffff"></path></svg>